<svg width="676" height="616" viewBox="0 0 676 616" fill="none" xmlns="http://www.w3.org/2000/svg">
<g filter="url(#filter0_d_1_16)">
<path d="M221.5 88.25C221.5 68.782 237.282 53 256.75 53H636.25C655.718 53 671.5 68.782 671.5 88.25V88.25C671.5 107.718 655.718 123.5 636.25 123.5H256.75C237.282 123.5 221.5 107.718 221.5 88.25V88.25Z" fill="#09ABFD"/>
<path d="M286 255.25C286 235.782 301.782 220 321.25 220H600.75C620.218 220 636 235.782 636 255.25V255.25C636 274.718 620.218 290.5 600.75 290.5H321.25C301.782 290.5 286 274.718 286 255.25V255.25Z" fill="#09ABFD"/>
<path d="M315 422.75C315 403.282 330.782 387.5 350.25 387.5H529.75C549.218 387.5 565 403.282 565 422.75V422.75C565 442.218 549.218 458 529.75 458H350.25C330.782 458 315 442.218 315 422.75V422.75Z" fill="#09ABFD"/>
<path d="M48 53H267.6C358.8 53 397.8 109.4 397.8 174.2C397.8 224.6 373.8 278.6 312 296L406.2 458H327.6L235.2 301.4H129.6C123 301.4 119.4 304.4 119.4 311.6V458H48.6V297.8C48.6 252.2 67.8 233.6 112.2 233.6H270C310.2 233.6 326.4 206 326.4 177.2C326.4 148.4 309 123.8 270 123.8H48V53Z" fill="black"/>
</g>
<defs>
<filter id="filter0_d_1_16" x="44" y="53" width="631.5" height="413" filterUnits="userSpaceOnUse" color-interpolation-filters="sRGB">
<feFlood flood-opacity="0" result="BackgroundImageFix"/>
<feColorMatrix in="SourceAlpha" type="matrix" values="0 0 0 0 0 0 0 0 0 0 0 0 0 0 0 0 0 0 127 0" result="hardAlpha"/>
<feOffset dy="4"/>
<feGaussianBlur stdDeviation="2"/>
<feComposite in2="hardAlpha" operator="out"/>
<feColorMatrix type="matrix" values="0 0 0 0 0 0 0 0 0 0 0 0 0 0 0 0 0 0 0.25 0"/>
<feBlend mode="normal" in2="BackgroundImageFix" result="effect1_dropShadow_1_16"/>
<feBlend mode="normal" in="SourceGraphic" in2="effect1_dropShadow_1_16" result="shape"/>
</filter>
</defs>
</svg>
